<svg width="392" height="96" viewBox="0 0 392 96" fill="none" xmlns="http://www.w3.org/2000/svg">
<circle cx="46" cy="48" r="44.5" stroke="#006BFF" stroke-width="3"/>
<circle cx="46" cy="48" r="33" fill="#006BFF"/>
<path d="M77.5 38H67.5C61.2791 32.8593 58.1189 31.7159 53 32.5C47.2285 34.4112 44.7587 36.1122 42 40.5C39.7044 45.3768 39.739 48.3405 42 54C47.6674 60.0243 49.8084 60.7674 53 60.5C60.0237 59.7495 63.1717 58.2938 67.5 54H77.5" stroke="#17E7F1" stroke-width="6"/>
<path d="M77.1177 37.7869L87.1177 30.7869" stroke="#006BFF" stroke-width="3"/>
<line x1="77.8053" y1="53.7345" x2="88.8053" y2="60.7345" stroke="#006BFF" stroke-width="3"/>
<path d="M79 44.5L92.5 23.2824V65.7176L79 44.5Z" fill="white"/>
<path d="M109.752 47.664C109.752 43.312 110.733 39.408 112.696 35.952C114.659 32.4533 117.325 29.7227 120.696 27.76C124.109 25.7973 127.885 24.816 132.024 24.816C136.888 24.816 141.133 25.9893 144.76 28.336C148.387 30.6827 151.032 34.0107 152.696 38.32H145.72C144.483 35.632 142.691 33.5627 140.344 32.112C138.04 30.6613 135.267 29.936 132.024 29.936C128.909 29.936 126.115 30.6613 123.64 32.112C121.165 33.5627 119.224 35.632 117.816 38.32C116.408 40.9653 115.704 44.08 115.704 47.664C115.704 51.2053 116.408 54.32 117.816 57.008C119.224 59.6533 121.165 61.7013 123.64 63.152C126.115 64.6027 128.909 65.328 132.024 65.328C135.267 65.328 138.04 64.624 140.344 63.216C142.691 61.7653 144.483 59.696 145.72 57.008H152.696C151.032 61.2747 148.387 64.5813 144.76 66.928C141.133 69.232 136.888 70.384 132.024 70.384C127.885 70.384 124.109 69.424 120.696 67.504C117.325 65.5413 114.659 62.832 112.696 59.376C110.733 55.92 109.752 52.016 109.752 47.664ZM159.19 52.336C159.19 48.752 159.915 45.616 161.366 42.928C162.816 40.1973 164.8 38.0853 167.318 36.592C169.878 35.0987 172.715 34.352 175.83 34.352C178.902 34.352 181.568 35.0133 183.83 36.336C186.091 37.6587 187.776 39.3227 188.886 41.328V34.928H194.774V70H188.886V63.472C187.734 65.52 186.006 67.2267 183.702 68.592C181.44 69.9147 178.795 70.576 175.766 70.576C172.651 70.576 169.835 69.808 167.318 68.272C164.8 66.736 162.816 64.5813 161.366 61.808C159.915 59.0347 159.19 55.8773 159.19 52.336ZM188.886 52.4C188.886 49.7547 188.352 47.4507 187.286 45.488C186.219 43.5253 184.768 42.032 182.934 41.008C181.142 39.9413 179.158 39.408 176.982 39.408C174.806 39.408 172.822 39.92 171.03 40.944C169.238 41.968 167.808 43.4613 166.742 45.424C165.675 47.3867 165.142 49.6907 165.142 52.336C165.142 55.024 165.675 57.3707 166.742 59.376C167.808 61.3387 169.238 62.8533 171.03 63.92C172.822 64.944 174.806 65.456 176.982 65.456C179.158 65.456 181.142 64.944 182.934 63.92C184.768 62.8533 186.219 61.3387 187.286 59.376C188.352 57.3707 188.886 55.0453 188.886 52.4ZM210.44 22.64V70H204.616V22.64H210.44ZM252.366 51.12C252.366 52.2293 252.302 53.4027 252.174 54.64H224.142C224.355 58.096 225.528 60.8053 227.662 62.768C229.838 64.688 232.462 65.648 235.534 65.648C238.051 65.648 240.142 65.072 241.806 63.92C243.512 62.7253 244.707 61.1467 245.39 59.184H251.662C250.723 62.5547 248.846 65.3067 246.03 67.44C243.214 69.5307 239.715 70.576 235.534 70.576C232.206 70.576 229.219 69.8293 226.574 68.336C223.971 66.8427 221.923 64.7307 220.43 62C218.936 59.2267 218.19 56.0267 218.19 52.4C218.19 48.7733 218.915 45.5947 220.366 42.864C221.816 40.1333 223.843 38.0427 226.446 36.592C229.091 35.0987 232.12 34.352 235.534 34.352C238.862 34.352 241.806 35.0773 244.366 36.528C246.926 37.9787 248.888 39.984 250.254 42.544C251.662 45.0613 252.366 47.92 252.366 51.12ZM246.35 49.904C246.35 47.6853 245.859 45.7867 244.878 44.208C243.896 42.5867 242.552 41.3707 240.846 40.56C239.182 39.7067 237.326 39.28 235.278 39.28C232.334 39.28 229.816 40.2187 227.726 42.096C225.678 43.9733 224.504 46.576 224.206 49.904H246.35ZM277.141 34.288C281.408 34.288 284.864 35.5893 287.509 38.192C290.154 40.752 291.477 44.464 291.477 49.328V70H285.717V50.16C285.717 46.6613 284.842 43.9947 283.093 42.16C281.344 40.2827 278.954 39.344 275.925 39.344C272.853 39.344 270.4 40.304 268.565 42.224C266.773 44.144 265.877 46.9387 265.877 50.608V70H260.053V34.928H265.877V39.92C267.029 38.128 268.586 36.7413 270.549 35.76C272.554 34.7787 274.752 34.288 277.141 34.288ZM298.815 52.336C298.815 48.752 299.54 45.616 300.991 42.928C302.441 40.1973 304.425 38.0853 306.943 36.592C309.503 35.0987 312.361 34.352 315.519 34.352C318.249 34.352 320.788 34.992 323.135 36.272C325.481 37.5093 327.273 39.152 328.511 41.2V22.64H334.399V70H328.511V63.408C327.359 65.4987 325.652 67.2267 323.391 68.592C321.129 69.9147 318.484 70.576 315.455 70.576C312.34 70.576 309.503 69.808 306.943 68.272C304.425 66.736 302.441 64.5813 300.991 61.808C299.54 59.0347 298.815 55.8773 298.815 52.336ZM328.511 52.4C328.511 49.7547 327.977 47.4507 326.911 45.488C325.844 43.5253 324.393 42.032 322.559 41.008C320.767 39.9413 318.783 39.408 316.607 39.408C314.431 39.408 312.447 39.92 310.655 40.944C308.863 41.968 307.433 43.4613 306.367 45.424C305.3 47.3867 304.767 49.6907 304.767 52.336C304.767 55.024 305.3 57.3707 306.367 59.376C307.433 61.3387 308.863 62.8533 310.655 63.92C312.447 64.944 314.431 65.456 316.607 65.456C318.783 65.456 320.767 64.944 322.559 63.92C324.393 62.8533 325.844 61.3387 326.911 59.376C327.977 57.3707 328.511 55.0453 328.511 52.4ZM350.065 22.64V70H344.241V22.64H350.065ZM390.199 34.928L369.079 86.512H363.062L369.975 69.616L355.831 34.928H362.295L373.303 63.344L384.183 34.928H390.199Z" fill="#006BFF"/>
</svg>
