<svg width="36" height="48" viewBox="0 0 36 48" fill="none" xmlns="http://www.w3.org/2000/svg">
<rect width="36" height="48" fill="white"/>
<path d="M27.7557 32.168C27.7557 33.672 27.3877 35.112 26.6517 36.488C25.9157 37.832 24.8117 38.952 23.3397 39.848C21.8677 40.744 20.0757 41.24 17.9637 41.336V45.176H15.8517V41.288C13.0037 41.032 10.6997 40.104 8.93969 38.504C7.17969 36.872 6.23569 34.856 6.10769 32.456H9.70769C9.83569 33.896 10.4117 35.208 11.4357 36.392C12.4917 37.544 13.9637 38.248 15.8517 38.504V25.208C13.7077 24.632 11.9797 24.056 10.6677 23.48C9.38769 22.904 8.29969 22.024 7.40369 20.84C6.50769 19.624 6.05969 18.008 6.05969 15.992C6.05969 13.464 6.93969 11.384 8.69969 9.752C10.4597 8.088 12.8437 7.192 15.8517 7.064V3.032H17.9637V7.112C20.6197 7.368 22.7477 8.232 24.3477 9.704C25.9477 11.176 26.8917 13.016 27.1797 15.224H23.6277C23.4357 14.04 22.8437 12.936 21.8517 11.912C20.8917 10.888 19.5957 10.248 17.9637 9.992V22.808C20.0437 23.352 21.7397 23.928 23.0517 24.536C24.3957 25.112 25.5157 26.008 26.4117 27.224C27.3077 28.44 27.7557 30.088 27.7557 32.168ZM9.46769 15.848C9.46769 17.64 10.0117 19 11.0997 19.928C12.2197 20.824 13.8037 21.576 15.8517 22.184V9.848C13.9317 9.944 12.3797 10.504 11.1957 11.528C10.0437 12.552 9.46769 13.992 9.46769 15.848ZM17.9637 38.6C20.0117 38.472 21.5957 37.832 22.7157 36.68C23.8357 35.496 24.3957 34.04 24.3957 32.312C24.3957 30.488 23.8357 29.112 22.7157 28.184C21.6277 27.256 20.0437 26.472 17.9637 25.832V38.6Z" fill="#006BFF"/>
</svg>
