<svg width="22" height="22" viewBox="0 0 22 22" fill="none" xmlns="http://www.w3.org/2000/svg">
<path d="M21.875 2.10937V19.7705C21.875 20.957 20.9473 21.8799 19.7656 21.8799H2.10938C0.942383 21.875 0 20.9668 0 19.7656V2.10937C0 0.932617 0.917969 0 2.10938 0H19.7705C20.9424 0 21.875 0.917969 21.875 2.10937ZM20.0537 19.7656V2.10937C20.0537 1.96289 19.9268 1.82617 19.7705 1.82617H19.3164L13.9307 5.46875L10.9375 3.03223L7.94922 5.46875L2.56348 1.82129H2.10938C1.95313 1.82129 1.82617 1.95801 1.82617 2.10449V19.7656C1.82617 19.9121 1.95313 20.0488 2.10938 20.0488H19.7705C19.9268 20.0537 20.0537 19.917 20.0537 19.7656ZM7.33398 7.51953V9.32617H3.74512V7.51953H7.33398ZM7.33398 11.1523V12.9736H3.74512V11.1523H7.33398ZM7.87598 3.95996L10.5127 1.82617H4.72656L7.87598 3.95996ZM18.1299 7.51953V9.32617H8.55957V7.51953H18.1299ZM18.1299 11.1523V12.9736H8.55957V11.1523H18.1299ZM13.999 3.95996L17.1484 1.82617H11.3672L13.999 3.95996ZM18.1299 14.7949V16.6162H13.2764V14.7949H18.1299Z" fill="#1979FF"/>
</svg>
