<svg width="42" height="42" viewBox="0 0 42 42" fill="none" xmlns="http://www.w3.org/2000/svg">
<mask id="mask0_268_90" style="mask-type:luminance" maskUnits="userSpaceOnUse" x="1" y="1" width="39" height="40">
<path d="M38.9375 17.5H21V24.9375H31.325C30.3625 29.6625 26.3375 32.375 21 32.375C14.7 32.375 9.625 27.3 9.625 21C9.625 14.7 14.7 9.625 21 9.625C23.7125 9.625 26.1625 10.5875 28.0875 12.1625L33.6875 6.5625C30.275 3.5875 25.9 1.75 21 1.75C10.325 1.75 1.75 10.325 1.75 21C1.75 31.675 10.325 40.25 21 40.25C30.625 40.25 39.375 33.25 39.375 21C39.375 19.8625 39.2 18.6375 38.9375 17.5Z" fill="white"/>
</mask>
<g mask="url(#mask0_268_90)">
<path d="M0 32.375V9.625L14.875 21L0 32.375Z" fill="#FBBC05"/>
</g>
<mask id="mask1_268_90" style="mask-type:luminance" maskUnits="userSpaceOnUse" x="1" y="1" width="39" height="40">
<path d="M38.9375 17.5H21V24.9375H31.325C30.3625 29.6625 26.3375 32.375 21 32.375C14.7 32.375 9.625 27.3 9.625 21C9.625 14.7 14.7 9.625 21 9.625C23.7125 9.625 26.1625 10.5875 28.0875 12.1625L33.6875 6.5625C30.275 3.5875 25.9 1.75 21 1.75C10.325 1.75 1.75 10.325 1.75 21C1.75 31.675 10.325 40.25 21 40.25C30.625 40.25 39.375 33.25 39.375 21C39.375 19.8625 39.2 18.6375 38.9375 17.5Z" fill="white"/>
</mask>
<g mask="url(#mask1_268_90)">
<path d="M0 9.625L14.875 21L21 15.6625L42 12.25V0H0V9.625Z" fill="#EA4335"/>
</g>
<mask id="mask2_268_90" style="mask-type:luminance" maskUnits="userSpaceOnUse" x="1" y="1" width="39" height="40">
<path d="M38.9375 17.5H21V24.9375H31.325C30.3625 29.6625 26.3375 32.375 21 32.375C14.7 32.375 9.625 27.3 9.625 21C9.625 14.7 14.7 9.625 21 9.625C23.7125 9.625 26.1625 10.5875 28.0875 12.1625L33.6875 6.5625C30.275 3.5875 25.9 1.75 21 1.75C10.325 1.75 1.75 10.325 1.75 21C1.75 31.675 10.325 40.25 21 40.25C30.625 40.25 39.375 33.25 39.375 21C39.375 19.8625 39.2 18.6375 38.9375 17.5Z" fill="white"/>
</mask>
<g mask="url(#mask2_268_90)">
<path d="M0 32.375L26.25 12.25L33.1625 13.125L42 0V42H0V32.375Z" fill="#34A853"/>
</g>
<mask id="mask3_268_90" style="mask-type:luminance" maskUnits="userSpaceOnUse" x="1" y="1" width="39" height="40">
<path d="M38.9375 17.5H21V24.9375H31.325C30.3625 29.6625 26.3375 32.375 21 32.375C14.7 32.375 9.625 27.3 9.625 21C9.625 14.7 14.7 9.625 21 9.625C23.7125 9.625 26.1625 10.5875 28.0875 12.1625L33.6875 6.5625C30.275 3.5875 25.9 1.75 21 1.75C10.325 1.75 1.75 10.325 1.75 21C1.75 31.675 10.325 40.25 21 40.25C30.625 40.25 39.375 33.25 39.375 21C39.375 19.8625 39.2 18.6375 38.9375 17.5Z" fill="white"/>
</mask>
<g mask="url(#mask3_268_90)">
<path d="M42 42L14.875 21L11.375 18.375L42 9.625V42Z" fill="#4285F4"/>
</g>
</svg>
