<svg width="25" height="28" viewBox="0 0 25 28" fill="none" xmlns="http://www.w3.org/2000/svg">
<rect width="25" height="28" fill="white"/>
<path d="M16.25 17.5H18.125C18.4375 17.5 18.75 17.1875 18.75 16.875V10.3125C18.75 10 18.4375 9.6875 18.125 9.6875H16.25C15.9375 9.6875 15.625 10 15.625 10.3125V16.875C15.625 17.1875 15.9375 17.5 16.25 17.5ZM20.9375 17.5H22.8125C23.125 17.5 23.4375 17.1875 23.4375 16.875V5.625C23.4375 5.3125 23.125 5 22.8125 5H20.9375C20.625 5 20.3125 5.3125 20.3125 5.625V16.875C20.3125 17.1875 20.625 17.5 20.9375 17.5ZM6.875 17.5H8.75C9.0625 17.5 9.375 17.1875 9.375 16.875V13.4375C9.375 13.125 9.0625 12.8125 8.75 12.8125H6.875C6.5625 12.8125 6.25 13.125 6.25 13.4375V16.875C6.25 17.1875 6.5625 17.5 6.875 17.5ZM11.5625 17.5H13.4375C13.75 17.5 14.0625 17.1875 14.0625 16.875V7.1875C14.0625 6.875 13.75 6.5625 13.4375 6.5625H11.5625C11.25 6.5625 10.9375 6.875 10.9375 7.1875V16.875C10.9375 17.1875 11.25 17.5 11.5625 17.5ZM24.2188 20.625H3.125V5.78125C3.125 5.34961 2.77539 5 2.34375 5H0.78125C0.349609 5 0 5.34961 0 5.78125V22.1875C0 23.0503 0.699707 23.75 1.5625 23.75H24.2188C24.6504 23.75 25 23.4004 25 22.9688V21.4062C25 20.9746 24.6504 20.625 24.2188 20.625Z" fill="#1979FF"/>
</svg>
