<svg width="37" height="17" viewBox="0 0 37 17" fill="none" xmlns="http://www.w3.org/2000/svg">
<path d="M25.1311 0H20.165C19.7025 0 19.2573 0.132764 18.9163 0.37174L13.2333 4.35467C13.2275 4.3591 13.2217 4.36795 13.2159 4.37237C12.2563 5.06275 12.2736 6.16469 13.0945 6.85064C13.8288 7.46578 15.3723 7.62952 16.3378 6.97013C16.3436 6.9657 16.3552 6.9657 16.3609 6.96128L20.9802 3.72183C21.3559 3.46072 21.9456 3.47843 22.2867 3.76608C22.6336 4.05374 22.6047 4.50071 22.2289 4.76624L20.72 5.82393L29.1375 11.0548C29.3052 11.1611 29.4555 11.2761 29.5942 11.3956V2.83231L26.4377 0.415995C26.0966 0.150466 25.6225 0 25.1311 0ZM31.45 2.84116V12.7498C31.45 13.5331 32.2767 14.166 33.3 14.166H37V2.84116H31.45ZM34.225 12.7498C33.7163 12.7498 33.3 12.4312 33.3 12.0417C33.3 11.6523 33.7163 11.3336 34.225 11.3336C34.7338 11.3336 35.15 11.6523 35.15 12.0417C35.15 12.4312 34.7338 12.7498 34.225 12.7498ZM0 14.1615H3.7C4.72328 14.1615 5.55 13.5287 5.55 12.7454V2.84116H0V14.1615ZM2.775 11.3336C3.28375 11.3336 3.7 11.6523 3.7 12.0417C3.7 12.4312 3.28375 12.7498 2.775 12.7498C2.26625 12.7498 1.85 12.4312 1.85 12.0417C1.85 11.6479 2.26625 11.3336 2.775 11.3336ZM27.9755 12.1568L19.3441 6.79311L17.6097 8.01012C15.8927 9.20942 13.2622 9.09436 11.7302 7.81539C10.175 6.5143 10.2964 4.50071 11.9845 3.31468L16.7136 0H11.8689C11.3775 0 10.9092 0.150466 10.5623 0.415995L7.4 2.83231V12.741H8.45797L13.69 16.3654C15.2741 17.3523 17.6039 17.1664 18.8931 15.9538L18.9047 15.945L19.9395 16.6309C20.8587 17.2063 22.2173 17.0956 22.9631 16.392L24.7784 14.6837L25.0906 14.8785C25.8827 15.3697 27.0505 15.2812 27.6922 14.6705L28.2414 14.1527C28.8889 13.542 28.7675 12.6524 27.9755 12.1568Z" fill="#006BFF"/>
</svg>
