<svg width="28" height="28" viewBox="0 0 28 28" fill="none" xmlns="http://www.w3.org/2000/svg">
<rect width="28" height="28" fill="white"/>
<path d="M21.3125 3.65957C21.3125 2.95421 21.5594 2.27774 21.999 1.77897C22.4385 1.2802 23.0346 1 23.6562 1C24.2779 1 24.874 1.2802 25.3135 1.77897C25.7531 2.27774 26 2.95421 26 3.65957V23.1631C26 23.8685 25.7531 24.545 25.3135 25.0437C24.874 25.5425 24.2779 25.8227 23.6562 25.8227C23.0346 25.8227 22.4385 25.5425 21.999 25.0437C21.5594 24.545 21.3125 23.8685 21.3125 23.1631V22.7837C17.9344 20.5833 14.2969 19.516 10.5125 19.0904L11.1453 23.8989C11.1878 24.1551 11.18 24.4188 11.1225 24.6711C11.0649 24.9235 10.959 25.1583 10.8124 25.359C10.6657 25.5596 10.4819 25.7211 10.2739 25.8319C10.066 25.9427 9.83909 26.0001 9.60938 26H8.75312C8.44941 26 8.15228 25.8995 7.89809 25.7109C7.6439 25.5223 7.44367 25.2537 7.32188 24.9379L4.43125 18.75C4.32604 18.748 4.22084 18.7463 4.11562 18.7447C3.28807 18.7354 2.49706 18.3565 1.91391 17.6901C1.33077 17.0237 1.00242 16.1235 1 15.1844L1 11.6383C1.00279 10.6991 1.33058 9.79872 1.91275 9.13113C2.49493 8.46354 3.28491 8.08216 4.1125 8.06915C5.40629 8.04924 6.6997 8.00491 7.99219 7.93617C12.7469 7.66312 17.5984 6.43085 21.3125 4.03723V3.65957ZM22.875 3.65957V23.1631C22.875 23.3982 22.9573 23.6237 23.1038 23.79C23.2503 23.9562 23.449 24.0496 23.6562 24.0496C23.8635 24.0496 24.0622 23.9562 24.2087 23.79C24.3552 23.6237 24.4375 23.3982 24.4375 23.1631V3.65957C24.4375 3.42445 24.3552 3.19896 24.2087 3.03271C24.0622 2.86645 23.8635 2.77305 23.6562 2.77305C23.449 2.77305 23.2503 2.86645 23.1038 3.03271C22.9573 3.19896 22.875 3.42445 22.875 3.65957ZM21.3125 6.05319C17.65 8.18972 13.1734 9.31915 8.8125 9.6578V17.1631C9.09375 17.1809 9.37344 17.2021 9.65156 17.227C13.6641 17.5621 17.6094 18.5461 21.3125 20.7606V6.05319ZM7.25 17.0727V9.75C6.21281 9.79307 5.17526 9.8238 4.1375 9.8422C3.71996 9.84776 3.32101 10.0391 3.02648 10.3749C2.73194 10.7108 2.56534 11.1645 2.5625 11.6383V15.1844C2.5625 16.1596 3.2625 16.961 4.13438 16.9734C5.17333 16.9871 6.21201 17.0202 7.25 17.0727ZM6.22344 18.8014L8.7375 24.1862L8.75312 24.2287H9.60938L9.60625 24.2039L8.91406 18.945C8.01776 18.8837 7.12082 18.8352 6.22344 18.7996V18.8014Z" fill="#4090FF"/>
</svg>
