<svg width="32" height="32" viewBox="0 0 32 32" fill="none" xmlns="http://www.w3.org/2000/svg">
<g clip-path="url(#clip0_269_126)">
<path d="M0.0576253 24.3836L0.115251 16.7671L7.62077 16.7095L15.1263 16.6518V24.3259V32H7.56314H0L0.0576253 24.3836ZM16.8794 24.3288V16.6575H24.4397H32V24.3288V32H24.4397H16.8794V24.3288ZM0.00568208 7.56164V0H7.56598H15.1263V7.56164V15.1233H7.56598H0.00568208V7.56164ZM16.8794 7.56164V0H24.4397H32V7.56164V15.1233H24.4397H16.8794V7.56164Z" fill="#FEB802"/>
<path d="M0.0576253 24.3836L0.115251 16.7671L7.62077 16.7095L15.1263 16.6518V24.3259V32H7.56314H0L0.0576253 24.3836ZM0.00568208 7.56164V0H7.56598H15.1263V7.56164V15.1233H7.56598H0.00568208V7.56164ZM16.8794 7.56164V0H24.4397H32V7.56164V15.1233H24.4397H16.8794V7.56164Z" fill="#03A3EE"/>
<path d="M0.00582886 7.56164V0H7.56613H15.1264V7.56164V15.1233H7.56613H0.00582886V7.56164ZM16.8795 7.56164V0H24.4398H32.0001V7.56164V15.1233H24.4398H16.8795V7.56164Z" fill="#F14F20"/>
<path d="M16.8794 7.56164V0H24.4397H32V7.56164V15.1233H24.4397H16.8794V7.56164Z" fill="#7DB800"/>
</g>
<defs>
<clipPath id="clip0_269_126">
<rect width="32" height="32" fill="white"/>
</clipPath>
</defs>
</svg>
