<svg width="22" height="22" viewBox="0 0 22 22" fill="none" xmlns="http://www.w3.org/2000/svg">
<path d="M21.875 19.5312V2.34375C21.875 1.0498 20.8252 0 19.5312 0H2.34375C1.0498 0 0 1.0498 0 2.34375V19.5312C0 20.8252 1.0498 21.875 2.34375 21.875H19.5312C20.8252 21.875 21.875 20.8252 21.875 19.5312ZM5.46875 7.8125C5.03711 7.8125 4.6875 7.46289 4.6875 7.03125V5.46875C4.6875 5.03711 5.03711 4.6875 5.46875 4.6875H11.7188C12.1504 4.6875 12.5 5.03711 12.5 5.46875V7.03125C12.5 7.46289 12.1504 7.8125 11.7188 7.8125H5.46875ZM5.46875 12.5C5.03711 12.5 4.6875 12.1504 4.6875 11.7188V10.1562C4.6875 9.72461 5.03711 9.375 5.46875 9.375H16.4062C16.8379 9.375 17.1875 9.72461 17.1875 10.1562V11.7188C17.1875 12.1504 16.8379 12.5 16.4062 12.5H5.46875ZM5.46875 17.1875C5.03711 17.1875 4.6875 16.8379 4.6875 16.4062V14.8438C4.6875 14.4121 5.03711 14.0625 5.46875 14.0625H8.59375C9.02539 14.0625 9.375 14.4121 9.375 14.8438V16.4062C9.375 16.8379 9.02539 17.1875 8.59375 17.1875H5.46875Z" fill="#1979FF"/>
</svg>
