<svg width="36" height="36" viewBox="0 0 36 36" fill="none" xmlns="http://www.w3.org/2000/svg">
<rect width="36" height="36" fill="white"/>
<path d="M31.5049 20.842C31.5049 28.7388 25.6187 34.9999 18.5243 34.9999C11.4299 34.9999 5.5437 28.7388 5.5437 20.842C5.5437 12.9451 11.4299 6.68408 18.5243 6.68408C25.6187 6.68408 31.5049 12.9451 31.5049 20.842Z" stroke="#006BFF" stroke-width="2"/>
<g clip-path="url(#clip0_287_166)">
<path d="M5.24272 24.2053C6.87083 24.2053 8.19175 22.7731 8.19175 21.0079C8.19175 19.2427 6.87083 17.8105 5.24272 17.8105C3.61461 17.8105 2.29369 19.2427 2.29369 21.0079C2.29369 22.7731 3.61461 24.2053 5.24272 24.2053ZM7.86408 24.9158H6.73566C6.28102 25.1423 5.77518 25.2711 5.24272 25.2711C4.71025 25.2711 4.20646 25.1423 3.74977 24.9158H2.62136C1.17347 24.9158 0 26.1881 0 27.7579V28.1132C0 28.7016 0.440306 29.179 0.98301 29.179H9.50243C10.0451 29.179 10.4854 28.7016 10.4854 28.1132V27.7579C10.4854 26.1881 9.31197 24.9158 7.86408 24.9158Z" fill="#006BFF"/>
</g>
<g clip-path="url(#clip1_287_166)">
<path d="M18.5243 6.39474C20.1524 6.39474 21.4733 4.96258 21.4733 3.19737C21.4733 1.43215 20.1524 0 18.5243 0C16.8962 0 15.5752 1.43215 15.5752 3.19737C15.5752 4.96258 16.8962 6.39474 18.5243 6.39474ZM21.1456 7.10526H20.0172C19.5626 7.33174 19.0567 7.46053 18.5243 7.46053C17.9918 7.46053 17.488 7.33174 17.0313 7.10526H15.9029C14.455 7.10526 13.2816 8.37755 13.2816 9.94737V10.3026C13.2816 10.891 13.7219 11.3684 14.2646 11.3684H22.784C23.3267 11.3684 23.767 10.891 23.767 10.3026V9.94737C23.767 8.37755 22.5935 7.10526 21.1456 7.10526Z" fill="#006BFF"/>
</g>
<g clip-path="url(#clip2_287_166)">
<path d="M30.7573 22.6897C32.3854 22.6897 33.7063 21.2575 33.7063 19.4923C33.7063 17.7271 32.3854 16.2949 30.7573 16.2949C29.1292 16.2949 27.8082 17.7271 27.8082 19.4923C27.8082 21.2575 29.1292 22.6897 30.7573 22.6897ZM33.3786 23.4002H32.2502C31.7956 23.6267 31.2897 23.7554 30.7573 23.7554C30.2248 23.7554 29.721 23.6267 29.2643 23.4002H28.1359C26.688 23.4002 25.5146 24.6725 25.5146 26.2423V26.5976C25.5146 27.186 25.9549 27.6633 26.4976 27.6633H35.017C35.5597 27.6633 36 27.186 36 26.5976V26.2423C36 24.6725 34.8265 23.4002 33.3786 23.4002Z" fill="#006BFF"/>
</g>
<defs>
<clipPath id="clip0_287_166">
<rect width="10.4854" height="11.3684" fill="white" transform="translate(0 17.8105)"/>
</clipPath>
<clipPath id="clip1_287_166">
<rect width="10.4854" height="11.3684" fill="white" transform="translate(13.2816)"/>
</clipPath>
<clipPath id="clip2_287_166">
<rect width="10.4854" height="11.3684" fill="white" transform="translate(25.5146 16.2949)"/>
</clipPath>
</defs>
</svg>
