<svg width="512" height="282" viewBox="0 0 512 282" fill="none" xmlns="http://www.w3.org/2000/svg">
<rect y="2" width="510" height="280" rx="12" fill="#0A2641"/>
<rect x="101.1" y="40.1" width="180.8" height="37.8" rx="7.9" fill="white" stroke="black" stroke-width="0.2"/>
<path d="M138.534 59C138.534 66.732 132.147 73 124.267 73C116.388 73 110 66.732 110 59C110 51.268 116.388 45 124.267 45C132.147 45 138.534 51.268 138.534 59ZM122.617 66.4129L133.202 56.0258C133.562 55.6731 133.562 55.1012 133.202 54.7485L131.901 53.4711C131.541 53.1184 130.958 53.1184 130.599 53.4711L121.966 61.9421L117.936 57.9872C117.576 57.6345 116.993 57.6345 116.634 57.9872L115.332 59.2645C114.973 59.6172 114.973 60.1892 115.332 60.5419L121.315 66.4128C121.675 66.7656 122.257 66.7656 122.617 66.4129Z" fill="#1074FF"/>
<path d="M161.976 57.192C161.976 57.7573 161.843 58.2907 161.576 58.792C161.309 59.2933 160.883 59.704 160.296 60.024C159.709 60.3333 158.957 60.488 158.04 60.488H156.024V65H154.2V53.88H158.04C158.893 53.88 159.613 54.0293 160.2 54.328C160.797 54.616 161.24 55.0107 161.528 55.512C161.827 56.0133 161.976 56.5733 161.976 57.192ZM158.04 59C158.733 59 159.251 58.8453 159.592 58.536C159.933 58.216 160.104 57.768 160.104 57.192C160.104 55.976 159.416 55.368 158.04 55.368H156.024V59H158.04ZM168.276 56.04C168.948 56.04 169.545 56.184 170.068 56.472C170.601 56.76 171.017 57.1867 171.316 57.752C171.625 58.3173 171.78 59 171.78 59.8V65H169.972V60.072C169.972 59.2827 169.774 58.68 169.38 58.264C168.985 57.8373 168.446 57.624 167.764 57.624C167.081 57.624 166.537 57.8373 166.132 58.264C165.737 58.68 165.54 59.2827 165.54 60.072V65H163.716V53.16H165.54V57.208C165.849 56.8347 166.238 56.5467 166.708 56.344C167.188 56.1413 167.71 56.04 168.276 56.04ZM177.93 65.144C177.098 65.144 176.346 64.9573 175.674 64.584C175.002 64.2 174.474 63.6667 174.09 62.984C173.706 62.2907 173.514 61.4907 173.514 60.584C173.514 59.688 173.712 58.8933 174.106 58.2C174.501 57.5067 175.04 56.9733 175.722 56.6C176.405 56.2267 177.168 56.04 178.01 56.04C178.853 56.04 179.616 56.2267 180.298 56.6C180.981 56.9733 181.52 57.5067 181.914 58.2C182.309 58.8933 182.506 59.688 182.506 60.584C182.506 61.48 182.304 62.2747 181.898 62.968C181.493 63.6613 180.938 64.2 180.234 64.584C179.541 64.9573 178.773 65.144 177.93 65.144ZM177.93 63.56C178.4 63.56 178.837 63.448 179.242 63.224C179.658 63 179.994 62.664 180.25 62.216C180.506 61.768 180.634 61.224 180.634 60.584C180.634 59.944 180.512 59.4053 180.266 58.968C180.021 58.52 179.696 58.184 179.29 57.96C178.885 57.736 178.448 57.624 177.978 57.624C177.509 57.624 177.072 57.736 176.666 57.96C176.272 58.184 175.957 58.52 175.722 58.968C175.488 59.4053 175.37 59.944 175.37 60.584C175.37 61.5333 175.61 62.2693 176.09 62.792C176.581 63.304 177.194 63.56 177.93 63.56ZM188.757 56.04C189.451 56.04 190.069 56.184 190.613 56.472C191.168 56.76 191.6 57.1867 191.909 57.752C192.219 58.3173 192.373 59 192.373 59.8V65H190.565V60.072C190.565 59.2827 190.368 58.68 189.973 58.264C189.579 57.8373 189.04 57.624 188.357 57.624C187.675 57.624 187.131 57.8373 186.725 58.264C186.331 58.68 186.133 59.2827 186.133 60.072V65H184.309V56.184H186.133V57.192C186.432 56.8293 186.811 56.5467 187.269 56.344C187.739 56.1413 188.235 56.04 188.757 56.04ZM202.78 60.376C202.78 60.7067 202.759 61.0053 202.716 61.272H195.98C196.033 61.976 196.295 62.5413 196.764 62.968C197.233 63.3947 197.809 63.608 198.492 63.608C199.473 63.608 200.167 63.1973 200.572 62.376H202.54C202.273 63.1867 201.788 63.8533 201.084 64.376C200.391 64.888 199.527 65.144 198.492 65.144C197.649 65.144 196.892 64.9573 196.22 64.584C195.559 64.2 195.036 63.6667 194.652 62.984C194.279 62.2907 194.092 61.4907 194.092 60.584C194.092 59.6773 194.273 58.8827 194.636 58.2C195.009 57.5067 195.527 56.9733 196.188 56.6C196.86 56.2267 197.628 56.04 198.492 56.04C199.324 56.04 200.065 56.2213 200.716 56.584C201.367 56.9467 201.873 57.4587 202.236 58.12C202.599 58.7707 202.78 59.5227 202.78 60.376ZM200.876 59.8C200.865 59.128 200.625 58.5893 200.156 58.184C199.687 57.7787 199.105 57.576 198.412 57.576C197.783 57.576 197.244 57.7787 196.796 58.184C196.348 58.5787 196.081 59.1173 195.996 59.8H200.876ZM211.931 65.144C211.238 65.144 210.614 65.0213 210.059 64.776C209.515 64.52 209.083 64.1787 208.763 63.752C208.443 63.3147 208.273 62.8293 208.251 62.296H210.139C210.171 62.6693 210.347 62.984 210.667 63.24C210.998 63.4853 211.409 63.608 211.899 63.608C212.411 63.608 212.806 63.512 213.083 63.32C213.371 63.1173 213.515 62.8613 213.515 62.552C213.515 62.2213 213.355 61.976 213.035 61.816C212.726 61.656 212.23 61.48 211.547 61.288C210.886 61.1067 210.347 60.9307 209.931 60.76C209.515 60.5893 209.153 60.328 208.843 59.976C208.545 59.624 208.395 59.16 208.395 58.584C208.395 58.1147 208.534 57.688 208.811 57.304C209.089 56.9093 209.483 56.6 209.995 56.376C210.518 56.152 211.115 56.04 211.787 56.04C212.79 56.04 213.595 56.296 214.203 56.808C214.822 57.3093 215.153 57.9973 215.195 58.872H213.371C213.339 58.4773 213.179 58.1627 212.891 57.928C212.603 57.6933 212.214 57.576 211.723 57.576C211.243 57.576 210.875 57.6667 210.619 57.848C210.363 58.0293 210.235 58.2693 210.235 58.568C210.235 58.8027 210.321 59 210.491 59.16C210.662 59.32 210.87 59.448 211.115 59.544C211.361 59.6293 211.723 59.7413 212.203 59.88C212.843 60.0507 213.366 60.2267 213.771 60.408C214.187 60.5787 214.545 60.8347 214.843 61.176C215.142 61.5173 215.297 61.9707 215.307 62.536C215.307 63.0373 215.169 63.4853 214.891 63.88C214.614 64.2747 214.219 64.584 213.707 64.808C213.206 65.032 212.614 65.144 211.931 65.144ZM216.67 60.584C216.67 59.6773 216.851 58.8827 217.214 58.2C217.587 57.5067 218.099 56.9733 218.75 56.6C219.401 56.2267 220.147 56.04 220.99 56.04C222.057 56.04 222.937 56.296 223.63 56.808C224.334 57.3093 224.809 58.0293 225.054 58.968H223.086C222.926 58.5307 222.67 58.1893 222.318 57.944C221.966 57.6987 221.523 57.576 220.99 57.576C220.243 57.576 219.646 57.8427 219.198 58.376C218.761 58.8987 218.542 59.6347 218.542 60.584C218.542 61.5333 218.761 62.2747 219.198 62.808C219.646 63.3413 220.243 63.608 220.99 63.608C222.046 63.608 222.745 63.144 223.086 62.216H225.054C224.798 63.112 224.318 63.8267 223.614 64.36C222.91 64.8827 222.035 65.144 220.99 65.144C220.147 65.144 219.401 64.9573 218.75 64.584C218.099 64.2 217.587 63.6667 217.214 62.984C216.851 62.2907 216.67 61.4907 216.67 60.584ZM228.696 57.464C228.963 57.016 229.315 56.6693 229.752 56.424C230.2 56.168 230.728 56.04 231.336 56.04V57.928H230.872C230.157 57.928 229.613 58.1093 229.24 58.472C228.877 58.8347 228.696 59.464 228.696 60.36V65H226.872V56.184H228.696V57.464ZM241.093 60.376C241.093 60.7067 241.071 61.0053 241.029 61.272H234.293C234.346 61.976 234.607 62.5413 235.077 62.968C235.546 63.3947 236.122 63.608 236.805 63.608C237.786 63.608 238.479 63.1973 238.885 62.376H240.852C240.586 63.1867 240.101 63.8533 239.397 64.376C238.703 64.888 237.839 65.144 236.805 65.144C235.962 65.144 235.205 64.9573 234.533 64.584C233.871 64.2 233.349 63.6667 232.965 62.984C232.591 62.2907 232.405 61.4907 232.405 60.584C232.405 59.6773 232.586 58.8827 232.949 58.2C233.322 57.5067 233.839 56.9733 234.501 56.6C235.173 56.2267 235.941 56.04 236.805 56.04C237.637 56.04 238.378 56.2213 239.029 56.584C239.679 56.9467 240.186 57.4587 240.549 58.12C240.911 58.7707 241.093 59.5227 241.093 60.376ZM239.189 59.8C239.178 59.128 238.938 58.5893 238.469 58.184C237.999 57.7787 237.418 57.576 236.725 57.576C236.095 57.576 235.557 57.7787 235.109 58.184C234.661 58.5787 234.394 59.1173 234.309 59.8H239.189ZM250.968 60.376C250.968 60.7067 250.946 61.0053 250.904 61.272H244.168C244.221 61.976 244.482 62.5413 244.952 62.968C245.421 63.3947 245.997 63.608 246.68 63.608C247.661 63.608 248.354 63.1973 248.76 62.376H250.727C250.461 63.1867 249.976 63.8533 249.272 64.376C248.578 64.888 247.714 65.144 246.68 65.144C245.837 65.144 245.08 64.9573 244.408 64.584C243.746 64.2 243.224 63.6667 242.84 62.984C242.466 62.2907 242.28 61.4907 242.28 60.584C242.28 59.6773 242.461 58.8827 242.824 58.2C243.197 57.5067 243.714 56.9733 244.376 56.6C245.048 56.2267 245.816 56.04 246.68 56.04C247.512 56.04 248.253 56.2213 248.904 56.584C249.554 56.9467 250.061 57.4587 250.424 58.12C250.786 58.7707 250.968 59.5227 250.968 60.376ZM249.064 59.8C249.053 59.128 248.813 58.5893 248.344 58.184C247.874 57.7787 247.293 57.576 246.6 57.576C245.97 57.576 245.432 57.7787 244.984 58.184C244.536 58.5787 244.269 59.1173 244.184 59.8H249.064ZM257.211 56.04C257.904 56.04 258.523 56.184 259.067 56.472C259.621 56.76 260.053 57.1867 260.363 57.752C260.672 58.3173 260.827 59 260.827 59.8V65H259.019V60.072C259.019 59.2827 258.821 58.68 258.427 58.264C258.032 57.8373 257.493 57.624 256.811 57.624C256.128 57.624 255.584 57.8373 255.179 58.264C254.784 58.68 254.587 59.2827 254.587 60.072V65H252.763V56.184H254.587V57.192C254.885 56.8293 255.264 56.5467 255.723 56.344C256.192 56.1413 256.688 56.04 257.211 56.04Z" fill="#131548"/>
<path d="M281.5 57L303.5 79V231L281.5 239" stroke="#016BFF" stroke-dasharray="10 10"/>
<rect x="101.1" y="217.1" width="180.8" height="37.8" rx="7.9" fill="#016BFF" stroke="black" stroke-width="0.2"/>
<path d="M138.534 236C138.534 243.732 132.147 250 124.267 250C116.388 250 110 243.732 110 236C110 228.268 116.388 222 124.267 222C132.147 222 138.534 228.268 138.534 236ZM122.617 243.413L133.202 233.026C133.562 232.673 133.562 232.101 133.202 231.748L131.901 230.471C131.541 230.118 130.958 230.118 130.599 230.471L121.966 238.942L117.936 234.987C117.576 234.634 116.993 234.634 116.634 234.987L115.332 236.265C114.973 236.617 114.973 237.189 115.332 237.542L121.315 243.413C121.675 243.766 122.257 243.766 122.617 243.413Z" fill="#FBFBFB"/>
<path d="M159.272 242.112C158.237 242.112 157.283 241.872 156.408 241.392C155.544 240.901 154.856 240.224 154.344 239.36C153.843 238.485 153.592 237.504 153.592 236.416C153.592 235.328 153.843 234.352 154.344 233.488C154.856 232.624 155.544 231.952 156.408 231.472C157.283 230.981 158.237 230.736 159.272 230.736C160.317 230.736 161.272 230.981 162.136 231.472C163.011 231.952 163.699 232.624 164.2 233.488C164.701 234.352 164.952 235.328 164.952 236.416C164.952 237.504 164.701 238.485 164.2 239.36C163.699 240.224 163.011 240.901 162.136 241.392C161.272 241.872 160.317 242.112 159.272 242.112ZM159.272 240.528C160.008 240.528 160.664 240.363 161.24 240.032C161.816 239.691 162.264 239.211 162.584 238.592C162.915 237.963 163.08 237.237 163.08 236.416C163.08 235.595 162.915 234.875 162.584 234.256C162.264 233.637 161.816 233.163 161.24 232.832C160.664 232.501 160.008 232.336 159.272 232.336C158.536 232.336 157.88 232.501 157.304 232.832C156.728 233.163 156.275 233.637 155.944 234.256C155.624 234.875 155.464 235.595 155.464 236.416C155.464 237.237 155.624 237.963 155.944 238.592C156.275 239.211 156.728 239.691 157.304 240.032C157.88 240.363 158.536 240.528 159.272 240.528ZM170.443 234.672H168.811V242H166.971V234.672H165.931V233.184H166.971V232.56C166.971 231.547 167.238 230.811 167.771 230.352C168.315 229.883 169.163 229.648 170.315 229.648V231.168C169.76 231.168 169.371 231.275 169.147 231.488C168.923 231.691 168.811 232.048 168.811 232.56V233.184H170.443V234.672ZM175.755 234.672H174.123V242H172.283V234.672H171.243V233.184H172.283V232.56C172.283 231.547 172.55 230.811 173.083 230.352C173.627 229.883 174.475 229.648 175.627 229.648V231.168C175.073 231.168 174.683 231.275 174.459 231.488C174.235 231.691 174.123 232.048 174.123 232.56V233.184H175.755V234.672ZM185.452 237.376C185.452 237.707 185.431 238.005 185.388 238.272H178.652C178.705 238.976 178.967 239.541 179.436 239.968C179.905 240.395 180.481 240.608 181.164 240.608C182.145 240.608 182.839 240.197 183.244 239.376H185.212C184.945 240.187 184.46 240.853 183.756 241.376C183.063 241.888 182.199 242.144 181.164 242.144C180.321 242.144 179.564 241.957 178.892 241.584C178.231 241.2 177.708 240.667 177.324 239.984C176.951 239.291 176.764 238.491 176.764 237.584C176.764 236.677 176.945 235.883 177.308 235.2C177.681 234.507 178.199 233.973 178.86 233.6C179.532 233.227 180.3 233.04 181.164 233.04C181.996 233.04 182.737 233.221 183.388 233.584C184.039 233.947 184.545 234.459 184.908 235.12C185.271 235.771 185.452 236.523 185.452 237.376ZM183.548 236.8C183.537 236.128 183.297 235.589 182.828 235.184C182.359 234.779 181.777 234.576 181.084 234.576C180.455 234.576 179.916 234.779 179.468 235.184C179.02 235.579 178.753 236.117 178.668 236.8H183.548ZM189.071 234.464C189.338 234.016 189.69 233.669 190.127 233.424C190.575 233.168 191.103 233.04 191.711 233.04V234.928H191.247C190.532 234.928 189.988 235.109 189.615 235.472C189.252 235.835 189.071 236.464 189.071 237.36V242H187.247V233.184H189.071V234.464ZM200.744 242.144C200.05 242.144 199.426 242.021 198.872 241.776C198.328 241.52 197.896 241.179 197.576 240.752C197.256 240.315 197.085 239.829 197.064 239.296H198.952C198.984 239.669 199.16 239.984 199.48 240.24C199.81 240.485 200.221 240.608 200.712 240.608C201.224 240.608 201.618 240.512 201.896 240.32C202.184 240.117 202.328 239.861 202.328 239.552C202.328 239.221 202.168 238.976 201.848 238.816C201.538 238.656 201.042 238.48 200.36 238.288C199.698 238.107 199.16 237.931 198.744 237.76C198.328 237.589 197.965 237.328 197.656 236.976C197.357 236.624 197.208 236.16 197.208 235.584C197.208 235.115 197.346 234.688 197.624 234.304C197.901 233.909 198.296 233.6 198.808 233.376C199.33 233.152 199.928 233.04 200.6 233.04C201.602 233.04 202.408 233.296 203.016 233.808C203.634 234.309 203.965 234.997 204.008 235.872H202.184C202.152 235.477 201.992 235.163 201.704 234.928C201.416 234.693 201.026 234.576 200.536 234.576C200.056 234.576 199.688 234.667 199.432 234.848C199.176 235.029 199.048 235.269 199.048 235.568C199.048 235.803 199.133 236 199.304 236.16C199.474 236.32 199.682 236.448 199.928 236.544C200.173 236.629 200.536 236.741 201.016 236.88C201.656 237.051 202.178 237.227 202.584 237.408C203 237.579 203.357 237.835 203.656 238.176C203.954 238.517 204.109 238.971 204.12 239.536C204.12 240.037 203.981 240.485 203.704 240.88C203.426 241.275 203.032 241.584 202.52 241.808C202.018 242.032 201.426 242.144 200.744 242.144ZM214.171 237.376C214.171 237.707 214.149 238.005 214.107 238.272H207.371C207.424 238.976 207.685 239.541 208.155 239.968C208.624 240.395 209.2 240.608 209.883 240.608C210.864 240.608 211.557 240.197 211.963 239.376H213.931C213.664 240.187 213.179 240.853 212.475 241.376C211.781 241.888 210.917 242.144 209.883 242.144C209.04 242.144 208.283 241.957 207.611 241.584C206.949 241.2 206.427 240.667 206.043 239.984C205.669 239.291 205.483 238.491 205.483 237.584C205.483 236.677 205.664 235.883 206.027 235.2C206.4 234.507 206.917 233.973 207.579 233.6C208.251 233.227 209.019 233.04 209.883 233.04C210.715 233.04 211.456 233.221 212.107 233.584C212.757 233.947 213.264 234.459 213.627 235.12C213.989 235.771 214.171 236.523 214.171 237.376ZM212.267 236.8C212.256 236.128 212.016 235.589 211.547 235.184C211.077 234.779 210.496 234.576 209.803 234.576C209.173 234.576 208.635 234.779 208.187 235.184C207.739 235.579 207.472 236.117 207.387 236.8H212.267ZM220.414 233.04C221.107 233.04 221.726 233.184 222.27 233.472C222.824 233.76 223.256 234.187 223.566 234.752C223.875 235.317 224.03 236 224.03 236.8V242H222.222V237.072C222.222 236.283 222.024 235.68 221.63 235.264C221.235 234.837 220.696 234.624 220.014 234.624C219.331 234.624 218.787 234.837 218.382 235.264C217.987 235.68 217.79 236.283 217.79 237.072V242H215.966V233.184H217.79V234.192C218.088 233.829 218.467 233.547 218.926 233.344C219.395 233.141 219.891 233.04 220.414 233.04ZM228.484 234.672V239.552C228.484 239.883 228.559 240.123 228.708 240.272C228.868 240.411 229.135 240.48 229.508 240.48H230.628V242H229.188C228.367 242 227.738 241.808 227.3 241.424C226.863 241.04 226.644 240.416 226.644 239.552V234.672H225.604V233.184H226.644V230.992H228.484V233.184H230.628V234.672H228.484ZM234.597 230.88L234.389 238.64H232.869L232.661 230.88H234.597ZM233.685 242.112C233.355 242.112 233.077 242 232.853 241.776C232.629 241.552 232.517 241.275 232.517 240.944C232.517 240.613 232.629 240.336 232.853 240.112C233.077 239.888 233.355 239.776 233.685 239.776C234.005 239.776 234.277 239.888 234.501 240.112C234.725 240.336 234.837 240.613 234.837 240.944C234.837 241.275 234.725 241.552 234.501 241.776C234.277 242 234.005 242.112 233.685 242.112Z" fill="white"/>
<rect x="101.1" y="99.1" width="180.8" height="37.8" rx="7.9" fill="white" stroke="black" stroke-width="0.2"/>
<path d="M138.534 118C138.534 125.732 132.147 132 124.267 132C116.388 132 110 125.732 110 118C110 110.268 116.388 104 124.267 104C132.147 104 138.534 110.268 138.534 118ZM122.617 125.413L133.202 115.026C133.562 114.673 133.562 114.101 133.202 113.748L131.901 112.471C131.541 112.118 130.958 112.118 130.599 112.471L121.966 120.942L117.936 116.987C117.576 116.634 116.993 116.634 116.634 116.987L115.332 118.265C114.973 118.617 114.973 119.189 115.332 119.542L121.315 125.413C121.675 125.766 122.257 125.766 122.617 125.413Z" fill="#1074FF"/>
<path d="M161.976 116.192C161.976 116.757 161.843 117.291 161.576 117.792C161.309 118.293 160.883 118.704 160.296 119.024C159.709 119.333 158.957 119.488 158.04 119.488H156.024V124H154.2V112.88H158.04C158.893 112.88 159.613 113.029 160.2 113.328C160.797 113.616 161.24 114.011 161.528 114.512C161.827 115.013 161.976 115.573 161.976 116.192ZM158.04 118C158.733 118 159.251 117.845 159.592 117.536C159.933 117.216 160.104 116.768 160.104 116.192C160.104 114.976 159.416 114.368 158.04 114.368H156.024V118H158.04ZM163.108 119.552C163.108 118.667 163.289 117.883 163.652 117.2C164.025 116.517 164.526 115.989 165.156 115.616C165.796 115.232 166.5 115.04 167.268 115.04C167.961 115.04 168.564 115.179 169.076 115.456C169.598 115.723 170.014 116.059 170.324 116.464V115.184H172.164V124H170.324V122.688C170.014 123.104 169.593 123.451 169.06 123.728C168.526 124.005 167.918 124.144 167.236 124.144C166.478 124.144 165.785 123.952 165.156 123.568C164.526 123.173 164.025 122.629 163.652 121.936C163.289 121.232 163.108 120.437 163.108 119.552ZM170.324 119.584C170.324 118.976 170.196 118.448 169.94 118C169.694 117.552 169.369 117.211 168.964 116.976C168.558 116.741 168.121 116.624 167.652 116.624C167.182 116.624 166.745 116.741 166.34 116.976C165.934 117.2 165.604 117.536 165.348 117.984C165.102 118.421 164.98 118.944 164.98 119.552C164.98 120.16 165.102 120.693 165.348 121.152C165.604 121.611 165.934 121.963 166.34 122.208C166.756 122.443 167.193 122.56 167.652 122.56C168.121 122.56 168.558 122.443 168.964 122.208C169.369 121.973 169.694 121.632 169.94 121.184C170.196 120.725 170.324 120.192 170.324 119.584ZM179.007 115.04C179.701 115.04 180.319 115.184 180.863 115.472C181.418 115.76 181.85 116.187 182.159 116.752C182.469 117.317 182.623 118 182.623 118.8V124H180.815V119.072C180.815 118.283 180.618 117.68 180.223 117.264C179.829 116.837 179.29 116.624 178.607 116.624C177.925 116.624 177.381 116.837 176.975 117.264C176.581 117.68 176.383 118.283 176.383 119.072V124H174.559V115.184H176.383V116.192C176.682 115.829 177.061 115.547 177.519 115.344C177.989 115.141 178.485 115.04 179.007 115.04ZM193.03 119.376C193.03 119.707 193.009 120.005 192.966 120.272H186.23C186.283 120.976 186.545 121.541 187.014 121.968C187.483 122.395 188.059 122.608 188.742 122.608C189.723 122.608 190.417 122.197 190.822 121.376H192.79C192.523 122.187 192.038 122.853 191.334 123.376C190.641 123.888 189.777 124.144 188.742 124.144C187.899 124.144 187.142 123.957 186.47 123.584C185.809 123.2 185.286 122.667 184.902 121.984C184.529 121.291 184.342 120.491 184.342 119.584C184.342 118.677 184.523 117.883 184.886 117.2C185.259 116.507 185.777 115.973 186.438 115.6C187.11 115.227 187.878 115.04 188.742 115.04C189.574 115.04 190.315 115.221 190.966 115.584C191.617 115.947 192.123 116.459 192.486 117.12C192.849 117.771 193.03 118.523 193.03 119.376ZM191.126 118.8C191.115 118.128 190.875 117.589 190.406 117.184C189.937 116.779 189.355 116.576 188.662 116.576C188.033 116.576 187.494 116.779 187.046 117.184C186.598 117.579 186.331 118.117 186.246 118.8H191.126ZM196.649 112.16V124H194.825V112.16H196.649ZM204.128 114.016C203.797 114.016 203.52 113.904 203.296 113.68C203.072 113.456 202.96 113.179 202.96 112.848C202.96 112.517 203.072 112.24 203.296 112.016C203.52 111.792 203.797 111.68 204.128 111.68C204.448 111.68 204.72 111.792 204.944 112.016C205.168 112.24 205.28 112.517 205.28 112.848C205.28 113.179 205.168 113.456 204.944 113.68C204.72 113.904 204.448 114.016 204.128 114.016ZM205.024 115.184V124H203.2V115.184H205.024ZM211.867 115.04C212.56 115.04 213.179 115.184 213.723 115.472C214.277 115.76 214.709 116.187 215.019 116.752C215.328 117.317 215.483 118 215.483 118.8V124H213.675V119.072C213.675 118.283 213.477 117.68 213.083 117.264C212.688 116.837 212.149 116.624 211.467 116.624C210.784 116.624 210.24 116.837 209.835 117.264C209.44 117.68 209.243 118.283 209.243 119.072V124H207.419V115.184H209.243V116.192C209.541 115.829 209.92 115.547 210.379 115.344C210.848 115.141 211.344 115.04 211.867 115.04ZM219.937 116.672V121.552C219.937 121.883 220.012 122.123 220.161 122.272C220.321 122.411 220.588 122.48 220.961 122.48H222.081V124H220.641C219.82 124 219.191 123.808 218.753 123.424C218.316 123.04 218.097 122.416 218.097 121.552V116.672H217.057V115.184H218.097V112.992H219.937V115.184H222.081V116.672H219.937ZM231.843 119.376C231.843 119.707 231.821 120.005 231.779 120.272H225.043C225.096 120.976 225.357 121.541 225.827 121.968C226.296 122.395 226.872 122.608 227.555 122.608C228.536 122.608 229.229 122.197 229.635 121.376H231.602C231.336 122.187 230.851 122.853 230.147 123.376C229.453 123.888 228.589 124.144 227.555 124.144C226.712 124.144 225.955 123.957 225.283 123.584C224.621 123.2 224.099 122.667 223.715 121.984C223.341 121.291 223.155 120.491 223.155 119.584C223.155 118.677 223.336 117.883 223.699 117.2C224.072 116.507 224.589 115.973 225.251 115.6C225.923 115.227 226.691 115.04 227.555 115.04C228.387 115.04 229.128 115.221 229.779 115.584C230.429 115.947 230.936 116.459 231.299 117.12C231.661 117.771 231.843 118.523 231.843 119.376ZM229.939 118.8C229.928 118.128 229.688 117.589 229.219 117.184C228.749 116.779 228.168 116.576 227.475 116.576C226.845 116.576 226.307 116.779 225.859 117.184C225.411 117.579 225.144 118.117 225.059 118.8H229.939ZM235.462 116.464C235.728 116.016 236.08 115.669 236.518 115.424C236.966 115.168 237.494 115.04 238.102 115.04V116.928H237.638C236.923 116.928 236.379 117.109 236.006 117.472C235.643 117.835 235.462 118.464 235.462 119.36V124H233.638V115.184H235.462V116.464ZM243.186 122.368L245.682 115.184H247.618L244.258 124H242.082L238.738 115.184H240.69L243.186 122.368ZM249.925 114.016C249.594 114.016 249.317 113.904 249.093 113.68C248.869 113.456 248.757 113.179 248.757 112.848C248.757 112.517 248.869 112.24 249.093 112.016C249.317 111.792 249.594 111.68 249.925 111.68C250.245 111.68 250.517 111.792 250.741 112.016C250.965 112.24 251.077 112.517 251.077 112.848C251.077 113.179 250.965 113.456 250.741 113.68C250.517 113.904 250.245 114.016 249.925 114.016ZM250.821 115.184V124H248.997V115.184H250.821ZM261.296 119.376C261.296 119.707 261.274 120.005 261.232 120.272H254.496C254.549 120.976 254.81 121.541 255.28 121.968C255.749 122.395 256.325 122.608 257.008 122.608C257.989 122.608 258.682 122.197 259.088 121.376H261.056C260.789 122.187 260.304 122.853 259.6 123.376C258.906 123.888 258.042 124.144 257.008 124.144C256.165 124.144 255.408 123.957 254.736 123.584C254.074 123.2 253.552 122.667 253.168 121.984C252.794 121.291 252.608 120.491 252.608 119.584C252.608 118.677 252.789 117.883 253.152 117.2C253.525 116.507 254.042 115.973 254.704 115.6C255.376 115.227 256.144 115.04 257.008 115.04C257.84 115.04 258.581 115.221 259.232 115.584C259.882 115.947 260.389 116.459 260.752 117.12C261.114 117.771 261.296 118.523 261.296 119.376ZM259.392 118.8C259.381 118.128 259.141 117.589 258.672 117.184C258.202 116.779 257.621 116.576 256.928 116.576C256.298 116.576 255.76 116.779 255.312 117.184C254.864 117.579 254.597 118.117 254.512 118.8H259.392ZM274.931 115.184L272.195 124H270.275L268.499 117.488L266.723 124H264.803L262.051 115.184H263.907L265.747 122.272L267.619 115.184H269.523L271.315 122.24L273.139 115.184H274.931Z" fill="#131548"/>
<rect x="9.1" y="158.1" width="272.8" height="37.8" rx="7.9" fill="white" stroke="black" stroke-width="0.2"/>
<path d="M46.5344 177C46.5344 184.732 40.1467 191 32.2672 191C24.3876 191 18 184.732 18 177C18 169.268 24.3876 163 32.2672 163C40.1467 163 46.5344 169.268 46.5344 177ZM30.6169 184.413L41.2022 174.026C41.5617 173.673 41.5617 173.101 41.2022 172.748L39.9005 171.471C39.5411 171.118 38.9583 171.118 38.5988 171.471L29.966 179.942L25.9356 175.987C25.5762 175.634 24.9933 175.634 24.6338 175.987L23.3321 177.265C22.9727 177.617 22.9727 178.189 23.3321 178.542L29.3151 184.413C29.6746 184.766 30.2574 184.766 30.6169 184.413Z" fill="#1074FF"/>
<path d="M71.08 171.88V183H69.256V178.136H64.024V183H62.2V171.88H64.024V176.648H69.256V171.88H71.08ZM74.4093 173.016C74.0786 173.016 73.8013 172.904 73.5773 172.68C73.3533 172.456 73.2413 172.179 73.2413 171.848C73.2413 171.517 73.3533 171.24 73.5773 171.016C73.8013 170.792 74.0786 170.68 74.4093 170.68C74.7293 170.68 75.0013 170.792 75.2253 171.016C75.4493 171.24 75.5613 171.517 75.5613 171.848C75.5613 172.179 75.4493 172.456 75.2253 172.68C75.0013 172.904 74.7293 173.016 74.4093 173.016ZM75.3053 174.184V183H73.4813V174.184H75.3053ZM79.524 175.464C79.7907 175.016 80.1427 174.669 80.58 174.424C81.028 174.168 81.556 174.04 82.164 174.04V175.928H81.7C80.9853 175.928 80.4413 176.109 80.068 176.472C79.7053 176.835 79.524 177.464 79.524 178.36V183H77.7V174.184H79.524V175.464ZM84.7686 173.016C84.438 173.016 84.1606 172.904 83.9366 172.68C83.7126 172.456 83.6006 172.179 83.6006 171.848C83.6006 171.517 83.7126 171.24 83.9366 171.016C84.1606 170.792 84.438 170.68 84.7686 170.68C85.0886 170.68 85.3606 170.792 85.5846 171.016C85.8086 171.24 85.9206 171.517 85.9206 171.848C85.9206 172.179 85.8086 172.456 85.5846 172.68C85.3606 172.904 85.0886 173.016 84.7686 173.016ZM85.6646 174.184V183H83.8406V174.184H85.6646ZM92.5074 174.04C93.2007 174.04 93.8194 174.184 94.3634 174.472C94.918 174.76 95.35 175.187 95.6594 175.752C95.9687 176.317 96.1234 177 96.1234 177.8V183H94.3154V178.072C94.3154 177.283 94.118 176.68 93.7234 176.264C93.3287 175.837 92.79 175.624 92.1074 175.624C91.4247 175.624 90.8807 175.837 90.4754 176.264C90.0807 176.68 89.8834 177.283 89.8834 178.072V183H88.0594V174.184H89.8834V175.192C90.182 174.829 90.5607 174.547 91.0194 174.344C91.4887 174.141 91.9847 174.04 92.5074 174.04ZM102.002 174.04C102.685 174.04 103.287 174.179 103.81 174.456C104.343 174.723 104.759 175.059 105.058 175.464V174.184H106.898V183.144C106.898 183.955 106.727 184.675 106.386 185.304C106.045 185.944 105.549 186.445 104.898 186.808C104.258 187.171 103.49 187.352 102.594 187.352C101.399 187.352 100.407 187.069 99.618 186.504C98.8287 185.949 98.3807 185.192 98.274 184.232H100.082C100.221 184.691 100.514 185.059 100.962 185.336C101.421 185.624 101.965 185.768 102.594 185.768C103.33 185.768 103.922 185.544 104.37 185.096C104.829 184.648 105.058 183.997 105.058 183.144V181.672C104.749 182.088 104.327 182.44 103.794 182.728C103.271 183.005 102.674 183.144 102.002 183.144C101.234 183.144 100.53 182.952 99.89 182.568C99.2607 182.173 98.7593 181.629 98.386 180.936C98.0233 180.232 97.842 179.437 97.842 178.552C97.842 177.667 98.0233 176.883 98.386 176.2C98.7593 175.517 99.2607 174.989 99.89 174.616C100.53 174.232 101.234 174.04 102.002 174.04ZM105.058 178.584C105.058 177.976 104.93 177.448 104.674 177C104.429 176.552 104.103 176.211 103.698 175.976C103.293 175.741 102.855 175.624 102.386 175.624C101.917 175.624 101.479 175.741 101.074 175.976C100.669 176.2 100.338 176.536 100.082 176.984C99.8367 177.421 99.714 177.944 99.714 178.552C99.714 179.16 99.8367 179.693 100.082 180.152C100.338 180.611 100.669 180.963 101.074 181.208C101.49 181.443 101.927 181.56 102.386 181.56C102.855 181.56 103.293 181.443 103.698 181.208C104.103 180.973 104.429 180.632 104.674 180.184C104.93 179.725 105.058 179.192 105.058 178.584ZM124.122 174.04C124.815 174.04 125.434 174.184 125.978 174.472C126.533 174.76 126.965 175.187 127.274 175.752C127.594 176.317 127.754 177 127.754 177.8V183H125.946V178.072C125.946 177.283 125.749 176.68 125.354 176.264C124.959 175.837 124.421 175.624 123.738 175.624C123.055 175.624 122.511 175.837 122.106 176.264C121.711 176.68 121.514 177.283 121.514 178.072V183H119.706V178.072C119.706 177.283 119.509 176.68 119.114 176.264C118.719 175.837 118.181 175.624 117.498 175.624C116.815 175.624 116.271 175.837 115.866 176.264C115.471 176.68 115.274 177.283 115.274 178.072V183H113.45V174.184H115.274V175.192C115.573 174.829 115.951 174.547 116.41 174.344C116.869 174.141 117.359 174.04 117.882 174.04C118.586 174.04 119.215 174.189 119.77 174.488C120.325 174.787 120.751 175.219 121.05 175.784C121.317 175.251 121.733 174.829 122.298 174.52C122.863 174.2 123.471 174.04 124.122 174.04ZM129.467 178.552C129.467 177.667 129.648 176.883 130.011 176.2C130.384 175.517 130.886 174.989 131.515 174.616C132.155 174.232 132.859 174.04 133.627 174.04C134.32 174.04 134.923 174.179 135.435 174.456C135.958 174.723 136.374 175.059 136.683 175.464V174.184H138.523V183H136.683V181.688C136.374 182.104 135.952 182.451 135.419 182.728C134.886 183.005 134.278 183.144 133.595 183.144C132.838 183.144 132.144 182.952 131.515 182.568C130.886 182.173 130.384 181.629 130.011 180.936C129.648 180.232 129.467 179.437 129.467 178.552ZM136.683 178.584C136.683 177.976 136.555 177.448 136.299 177C136.054 176.552 135.728 176.211 135.323 175.976C134.918 175.741 134.48 175.624 134.011 175.624C133.542 175.624 133.104 175.741 132.699 175.976C132.294 176.2 131.963 176.536 131.707 176.984C131.462 177.421 131.339 177.944 131.339 178.552C131.339 179.16 131.462 179.693 131.707 180.152C131.963 180.611 132.294 180.963 132.699 181.208C133.115 181.443 133.552 181.56 134.011 181.56C134.48 181.56 134.918 181.443 135.323 181.208C135.728 180.973 136.054 180.632 136.299 180.184C136.555 179.725 136.683 179.192 136.683 178.584ZM145.367 174.04C146.06 174.04 146.679 174.184 147.223 174.472C147.777 174.76 148.209 175.187 148.519 175.752C148.828 176.317 148.983 177 148.983 177.8V183H147.175V178.072C147.175 177.283 146.977 176.68 146.583 176.264C146.188 175.837 145.649 175.624 144.967 175.624C144.284 175.624 143.74 175.837 143.335 176.264C142.94 176.68 142.743 177.283 142.743 178.072V183H140.919V174.184H142.743V175.192C143.041 174.829 143.42 174.547 143.879 174.344C144.348 174.141 144.844 174.04 145.367 174.04ZM150.701 178.552C150.701 177.667 150.883 176.883 151.245 176.2C151.619 175.517 152.12 174.989 152.749 174.616C153.389 174.232 154.093 174.04 154.861 174.04C155.555 174.04 156.157 174.179 156.669 174.456C157.192 174.723 157.608 175.059 157.917 175.464V174.184H159.757V183H157.917V181.688C157.608 182.104 157.187 182.451 156.653 182.728C156.12 183.005 155.512 183.144 154.829 183.144C154.072 183.144 153.379 182.952 152.749 182.568C152.12 182.173 151.619 181.629 151.245 180.936C150.883 180.232 150.701 179.437 150.701 178.552ZM157.917 178.584C157.917 177.976 157.789 177.448 157.533 177C157.288 176.552 156.963 176.211 156.557 175.976C156.152 175.741 155.715 175.624 155.245 175.624C154.776 175.624 154.339 175.741 153.933 175.976C153.528 176.2 153.197 176.536 152.941 176.984C152.696 177.421 152.573 177.944 152.573 178.552C152.573 179.16 152.696 179.693 152.941 180.152C153.197 180.611 153.528 180.963 153.933 181.208C154.349 181.443 154.787 181.56 155.245 181.56C155.715 181.56 156.152 181.443 156.557 181.208C156.963 180.973 157.288 180.632 157.533 180.184C157.789 179.725 157.917 179.192 157.917 178.584ZM165.705 174.04C166.388 174.04 166.99 174.179 167.513 174.456C168.046 174.723 168.462 175.059 168.761 175.464V174.184H170.601V183.144C170.601 183.955 170.43 184.675 170.089 185.304C169.748 185.944 169.252 186.445 168.601 186.808C167.961 187.171 167.193 187.352 166.297 187.352C165.102 187.352 164.11 187.069 163.321 186.504C162.532 185.949 162.084 185.192 161.977 184.232H163.785C163.924 184.691 164.217 185.059 164.665 185.336C165.124 185.624 165.668 185.768 166.297 185.768C167.033 185.768 167.625 185.544 168.073 185.096C168.532 184.648 168.761 183.997 168.761 183.144V181.672C168.452 182.088 168.03 182.44 167.497 182.728C166.974 183.005 166.377 183.144 165.705 183.144C164.937 183.144 164.233 182.952 163.593 182.568C162.964 182.173 162.462 181.629 162.089 180.936C161.726 180.232 161.545 179.437 161.545 178.552C161.545 177.667 161.726 176.883 162.089 176.2C162.462 175.517 162.964 174.989 163.593 174.616C164.233 174.232 164.937 174.04 165.705 174.04ZM168.761 178.584C168.761 177.976 168.633 177.448 168.377 177C168.132 176.552 167.806 176.211 167.401 175.976C166.996 175.741 166.558 175.624 166.089 175.624C165.62 175.624 165.182 175.741 164.777 175.976C164.372 176.2 164.041 176.536 163.785 176.984C163.54 177.421 163.417 177.944 163.417 178.552C163.417 179.16 163.54 179.693 163.785 180.152C164.041 180.611 164.372 180.963 164.777 181.208C165.193 181.443 165.63 181.56 166.089 181.56C166.558 181.56 166.996 181.443 167.401 181.208C167.806 180.973 168.132 180.632 168.377 180.184C168.633 179.725 168.761 179.192 168.761 178.584ZM181.077 178.376C181.077 178.707 181.056 179.005 181.013 179.272H174.277C174.33 179.976 174.592 180.541 175.061 180.968C175.53 181.395 176.106 181.608 176.789 181.608C177.77 181.608 178.464 181.197 178.869 180.376H180.837C180.57 181.187 180.085 181.853 179.381 182.376C178.688 182.888 177.824 183.144 176.789 183.144C175.946 183.144 175.189 182.957 174.517 182.584C173.856 182.2 173.333 181.667 172.949 180.984C172.576 180.291 172.389 179.491 172.389 178.584C172.389 177.677 172.57 176.883 172.933 176.2C173.306 175.507 173.824 174.973 174.485 174.6C175.157 174.227 175.925 174.04 176.789 174.04C177.621 174.04 178.362 174.221 179.013 174.584C179.664 174.947 180.17 175.459 180.533 176.12C180.896 176.771 181.077 177.523 181.077 178.376ZM179.173 177.8C179.162 177.128 178.922 176.589 178.453 176.184C177.984 175.779 177.402 175.576 176.709 175.576C176.08 175.576 175.541 175.779 175.093 176.184C174.645 176.579 174.378 177.117 174.293 177.8H179.173ZM184.696 175.464C184.963 175.016 185.315 174.669 185.752 174.424C186.2 174.168 186.728 174.04 187.336 174.04V175.928H186.872C186.157 175.928 185.613 176.109 185.24 176.472C184.877 176.835 184.696 177.464 184.696 178.36V183H182.872V174.184H184.696V175.464ZM194.097 173.016C193.766 173.016 193.489 172.904 193.265 172.68C193.041 172.456 192.929 172.179 192.929 171.848C192.929 171.517 193.041 171.24 193.265 171.016C193.489 170.792 193.766 170.68 194.097 170.68C194.417 170.68 194.689 170.792 194.913 171.016C195.137 171.24 195.249 171.517 195.249 171.848C195.249 172.179 195.137 172.456 194.913 172.68C194.689 172.904 194.417 173.016 194.097 173.016ZM194.993 174.184V183H193.169V174.184H194.993ZM201.836 174.04C202.529 174.04 203.148 174.184 203.692 174.472C204.246 174.76 204.678 175.187 204.988 175.752C205.297 176.317 205.452 177 205.452 177.8V183H203.644V178.072C203.644 177.283 203.446 176.68 203.052 176.264C202.657 175.837 202.118 175.624 201.436 175.624C200.753 175.624 200.209 175.837 199.804 176.264C199.409 176.68 199.212 177.283 199.212 178.072V183H197.388V174.184H199.212V175.192C199.51 174.829 199.889 174.547 200.348 174.344C200.817 174.141 201.313 174.04 201.836 174.04ZM209.906 175.672V180.552C209.906 180.883 209.981 181.123 210.13 181.272C210.29 181.411 210.557 181.48 210.93 181.48H212.05V183H210.61C209.789 183 209.159 182.808 208.722 182.424C208.285 182.04 208.066 181.416 208.066 180.552V175.672H207.026V174.184H208.066V171.992H209.906V174.184H212.05V175.672H209.906ZM221.811 178.376C221.811 178.707 221.79 179.005 221.747 179.272H215.011C215.065 179.976 215.326 180.541 215.795 180.968C216.265 181.395 216.841 181.608 217.523 181.608C218.505 181.608 219.198 181.197 219.603 180.376H221.571C221.305 181.187 220.819 181.853 220.115 182.376C219.422 182.888 218.558 183.144 217.523 183.144C216.681 183.144 215.923 182.957 215.251 182.584C214.59 182.2 214.067 181.667 213.683 180.984C213.31 180.291 213.123 179.491 213.123 178.584C213.123 177.677 213.305 176.883 213.667 176.2C214.041 175.507 214.558 174.973 215.219 174.6C215.891 174.227 216.659 174.04 217.523 174.04C218.355 174.04 219.097 174.221 219.747 174.584C220.398 174.947 220.905 175.459 221.267 176.12C221.63 176.771 221.811 177.523 221.811 178.376ZM219.907 177.8C219.897 177.128 219.657 176.589 219.187 176.184C218.718 175.779 218.137 175.576 217.443 175.576C216.814 175.576 216.275 175.779 215.827 176.184C215.379 176.579 215.113 177.117 215.027 177.8H219.907ZM225.43 175.464C225.697 175.016 226.049 174.669 226.486 174.424C226.934 174.168 227.462 174.04 228.07 174.04V175.928H227.606C226.892 175.928 226.348 176.109 225.974 176.472C225.612 176.835 225.43 177.464 225.43 178.36V183H223.606V174.184H225.43V175.464ZM233.155 181.368L235.651 174.184H237.587L234.227 183H232.051L228.707 174.184H230.659L233.155 181.368ZM239.894 173.016C239.563 173.016 239.286 172.904 239.062 172.68C238.838 172.456 238.726 172.179 238.726 171.848C238.726 171.517 238.838 171.24 239.062 171.016C239.286 170.792 239.563 170.68 239.894 170.68C240.214 170.68 240.486 170.792 240.71 171.016C240.934 171.24 241.046 171.517 241.046 171.848C241.046 172.179 240.934 172.456 240.71 172.68C240.486 172.904 240.214 173.016 239.894 173.016ZM240.79 174.184V183H238.966V174.184H240.79ZM251.264 178.376C251.264 178.707 251.243 179.005 251.2 179.272H244.464C244.518 179.976 244.779 180.541 245.248 180.968C245.718 181.395 246.294 181.608 246.976 181.608C247.958 181.608 248.651 181.197 249.056 180.376H251.024C250.758 181.187 250.272 181.853 249.568 182.376C248.875 182.888 248.011 183.144 246.976 183.144C246.134 183.144 245.376 182.957 244.704 182.584C244.043 182.2 243.52 181.667 243.136 180.984C242.763 180.291 242.576 179.491 242.576 178.584C242.576 177.677 242.758 176.883 243.12 176.2C243.494 175.507 244.011 174.973 244.672 174.6C245.344 174.227 246.112 174.04 246.976 174.04C247.808 174.04 248.55 174.221 249.2 174.584C249.851 174.947 250.358 175.459 250.72 176.12C251.083 176.771 251.264 177.523 251.264 178.376ZM249.36 177.8C249.35 177.128 249.11 176.589 248.64 176.184C248.171 175.779 247.59 175.576 246.896 175.576C246.267 175.576 245.728 175.779 245.28 176.184C244.832 176.579 244.566 177.117 244.48 177.8H249.36ZM264.899 174.184L262.163 183H260.243L258.467 176.488L256.691 183H254.771L252.019 174.184H253.875L255.715 181.272L257.587 174.184H259.491L261.283 181.24L263.107 174.184H264.899Z" fill="#131548"/>
<rect x="332" y="90" width="113" height="106" rx="8" fill="#016BFF"/>
<path d="M418.5 142.5C418.5 159.091 405.27 172.5 389 172.5C372.73 172.5 359.5 159.091 359.5 142.5C359.5 125.909 372.73 112.5 389 112.5C405.27 112.5 418.5 125.909 418.5 142.5Z" stroke="white" stroke-width="3"/>
<ellipse cx="389" cy="142.5" rx="22.2391" ry="22.5978" fill="white"/>
<path d="M410.228 135.652H403.489C399.297 132.132 397.167 131.349 393.717 131.886C389.828 133.195 388.163 134.359 386.304 137.364C384.757 140.704 384.781 142.733 386.304 146.609C390.124 150.734 391.567 151.243 393.717 151.06C398.451 150.546 400.572 149.549 403.489 146.609H410.228" stroke="#016BFF" stroke-width="6"/>
<path d="M409.971 135.506L416.71 130.713" stroke="white" stroke-width="3"/>
<line y1="-1.5" x2="8.82783" y2="-1.5" transform="matrix(0.839735 0.542996 -0.530768 0.847517 409.891 147.293)" stroke="white" stroke-width="3"/>
<path d="M411.239 140.103L420.337 125.574V154.633L411.239 140.103Z" fill="#016BFF"/>
<path d="M404 2C430.717 38.3793 447.066 44.1474 478 35.5C485.48 46.0637 492.324 50.6873 510.5 56" stroke="#17E7F1" stroke-width="5"/>
<path d="M502.5 63C501.769 39.7072 503.044 30.0072 509 20V139C497.726 139.054 491.766 136.172 483 116C483.095 105.833 484.124 99.2229 487.5 86C492.161 77.95 495.156 73.1379 502.5 63Z" fill="#D6C3FC" stroke="#D6C3FC" stroke-width="5"/>
<path d="M283.5 119.5H301" stroke="#016BFF" stroke-dasharray="10 10"/>
<path d="M283.5 180H302" stroke="#016AFF" stroke-dasharray="10 10"/>
</svg>
